PathFileType	4	(X/Y/Z)	1H_rest_slow_left.trc
DataRate	CameraRate	NumFrames	NumMarkers	Units	OrigDataRate	OrigDataStartFrame	OrigNumFrames
250.00	250.00	8	18	mm	250.00	10204	13604
Frame#	Time	c7	r_should	l_should	clavicle	r_upa	r_elb_l	r_elb_m	r_low	r_wri_l	r_wri_m	r_met	l_upa	l_elb_l	l_elb_m	l_low	l_wri_l	l_wri_m	l_met
	X1	Y1	Z1	X2	Y2	Z2	X3	Y3	Z3	X4	Y4	Z4	X5	Y5	Z5	X6	Y6	Z6	X7	Y7	Z7	X8	Y8	Z8	X9	Y9	Z9	X10	Y10	Z10	X11	Y11	Z11	X12	Y12	Z12	X13	Y13	Z13	X14	Y14	Z14	X15	Y15	Z15	X16	Y16	Z16	X17	Y17	Z17	X18	Y18	Z18
10204	40.81200	661.82410	1417.98499	237.66803	698.75983	1364.61646	400.29135	731.92639	1361.83447	77.65530	789.24438	1277.15015	245.34250	674.25208	1162.16638	477.52017	659.03009	1075.18982	501.10413	618.95551	1040.22009	427.25766	710.40320	899.80737	500.15665	739.57227	835.17957	476.61606	669.83521	814.62476	494.17474	768.47974	756.60358	512.03851	716.07172	1168.65540	19.11574	718.09637	1059.32190	7.93120	680.45465	1026.22314	88.96162	724.46039	886.61707	-4.31090	746.51215	808.65112	14.45697	674.62439	796.86255	16.46244	759.53998	730.90826	-25.97519
10205	40.81600	661.85022	1417.98438	237.70453	698.79395	1364.58972	400.31546	731.90070	1361.82092	77.67869	789.24091	1277.11633	245.34972	674.26538	1162.13989	477.55109	659.02234	1075.16577	501.14560	618.92377	1040.21338	427.30566	710.37579	899.78528	500.20499	739.52673	835.15118	476.66721	669.79156	814.60547	494.24088	768.42822	756.56989	512.08563	715.99573	1168.63586	19.15403	717.95172	1059.29932	7.98296	680.28357	1026.22717	89.01710	724.09229	886.56329	-4.26504	746.00342	808.54999	14.47696	674.10657	796.89020	16.47400	758.91437	730.73425	-25.91962
10206	40.82000	661.87952	1417.98303	237.74687	698.82721	1364.56250	400.34296	731.87109	1361.80713	77.69799	789.23157	1277.07922	245.36052	674.28717	1162.11340	477.58630	659.01947	1075.13782	501.18286	618.89874	1040.19958	427.34821	710.34827	899.76672	500.25439	739.48236	835.12134	476.72046	669.74713	814.58478	494.30576	768.36993	756.53339	512.14368	715.91223	1168.61377	19.19490	717.79919	1059.27832	8.03716	680.09631	1026.23987	89.07220	723.71918	886.51910	-4.22183	745.51343	808.45874	14.49890	673.58875	796.90845	16.49677	758.26788	730.59692	-25.88871
10207	40.82400	661.90814	1417.98108	237.79175	698.86346	1364.53088	400.36655	731.83929	1361.79517	77.71391	789.22729	1277.04358	245.36601	674.30652	1162.09229	477.61694	659.02423	1075.11877	501.22644	618.86926	1040.18408	427.39560	710.31653	899.74750	500.30167	739.43640	835.09265	476.77438	669.70209	814.56305	494.37265	768.31195	756.49951	512.20190	715.81543	1168.59827	19.23481	717.63977	1059.26013	8.08540	679.91486	1026.25513	89.13174	723.34430	886.47797	-4.17834	745.03479	808.37756	14.52036	673.08228	796.92651	16.52742	757.60815	730.46796	-25.85439
10208	40.82800	661.93518	1417.97375	237.83153	698.90442	1364.50439	400.39838	731.80591	1361.79224	77.73566	789.22205	1277.01453	245.37198	674.32819	1162.07837	477.64896	659.03546	1075.10791	501.26361	618.83917	1040.17786	427.44141	710.28485	899.73041	500.34808	739.39240	835.05939	476.81976	669.66150	814.55090	494.43784	768.25677	756.47809	512.26483	715.70337	1168.59290	19.26477	717.47150	1059.25061	8.13212	679.73810	1026.27441	89.18291	722.97113	886.44720	-4.14598	744.54572	808.30481	14.53263	672.57263	796.94952	16.55753	756.99896	730.26959	-25.76046
10209	40.83200	661.96478	1417.96631	237.87231	698.94476	1364.47925	400.42813	731.77551	1361.78699	77.74833	789.21552	1276.98645	245.37653	674.34503	1162.06714	477.67145	659.05164	1075.09863	501.29355	618.81744	1040.17615	427.47757	710.25336	899.70911	500.39804	739.33875	835.02051	476.86533	669.61884	814.54224	494.49319	768.19580	756.45209	512.32068	715.58356	1168.58630	19.28490	717.29700	1059.24207	8.17245	679.54565	1026.30237	89.23116	722.60809	886.42004	-4.12438	744.05951	808.23969	14.54081	672.07391	796.97931	16.57708	756.38177	730.11554	-25.70728
10210	40.83600	661.99365	1417.96082	237.91393	698.98480	1364.45203	400.45169	731.73999	1361.76965	77.76049	789.20630	1276.94983	245.37086	674.36176	1162.04932	477.69553	659.06177	1075.08740	501.32687	618.80548	1040.16431	427.51163	710.21973	899.67865	500.44644	739.28540	834.97412	476.90582	669.57019	814.52338	494.54773	768.13007	756.42059	512.38037	715.45789	1168.57556	19.30334	717.12372	1059.22754	8.21397	679.34100	1026.32874	89.27361	722.23676	886.39221	-4.10956	743.58496	808.17413	14.55763	671.58936	797.01013	16.59980	755.75128	729.97803	-25.66739
10211	40.84000	662.02600	1417.95532	237.95529	699.03003	1364.41980	400.48343	731.70471	1361.75464	77.77715	789.19891	1276.90698	245.36899	674.38611	1162.01611	477.71805	659.06689	1075.06396	501.35733	618.79315	1040.14026	427.54541	710.18707	899.64728	500.49423	739.23492	834.92480	476.95355	669.51825	814.49957	494.60037	768.06439	756.37830	512.44629	715.32550	1168.56885	19.32829	716.95007	1059.21387	8.26111	679.12891	1026.34790	89.30713	721.85693	886.36383	-4.09434	743.10468	808.10461	14.57733	671.09393	797.03705	16.62506	755.13336	729.84039	-25.62654
